<?xml version="1.0" encoding="UTF-8" standalone="no"?>
<!DOCTYPE svg PUBLIC "-//W3C//DTD SVG 1.1//EN" "http://www.w3.org/Graphics/SVG/1.1/DTD/svg11.dtd">
<svg width="100%" height="100%" viewBox="0 0 275 90" version="1.1" xmlns="http://www.w3.org/2000/svg" xmlns:xlink="http://www.w3.org/1999/xlink" xml:space="preserve" xmlns:serif="http://www.serif.com/" style="fill-rule:evenodd;clip-rule:evenodd;stroke-linejoin:round;stroke-miterlimit:2;">
    <g transform="matrix(1.26835,0,0,1.26835,-453.994,-384.92)">
        <g transform="matrix(67.3517,0,0,88.7742,370.428,369.833)">
            <path d="M0.383,0C0.314,0 0.264,0 0.233,-0.001C0.204,-0.001 0.182,-0.001 0.167,-0.002L0.136,-0.003C0.13,-0.003 0.124,-0.006 0.119,-0.011C0.113,-0.016 0.111,-0.022 0.111,-0.028L0.111,-0.248L0.111,-0.344L0.11,-0.426C0.11,-0.453 0.11,-0.488 0.112,-0.529C0.112,-0.538 0.113,-0.56 0.115,-0.596L0.115,-0.619C0.115,-0.638 0.118,-0.653 0.126,-0.664C0.129,-0.67 0.134,-0.673 0.142,-0.673C0.174,-0.673 0.159,-0.672 0.198,-0.671C0.203,-0.67 0.211,-0.67 0.221,-0.67C0.243,-0.67 0.259,-0.67 0.27,-0.669L0.348,-0.669C0.361,-0.669 0.371,-0.667 0.378,-0.664C0.39,-0.657 0.396,-0.642 0.396,-0.618L0.395,-0.61C0.395,-0.608 0.394,-0.603 0.393,-0.595C0.391,-0.585 0.39,-0.578 0.39,-0.573C0.39,-0.566 0.391,-0.556 0.393,-0.545C0.394,-0.537 0.395,-0.532 0.395,-0.529L0.396,-0.523L0.396,-0.256L0.392,-0.182C0.392,-0.177 0.395,-0.174 0.401,-0.172C0.403,-0.172 0.408,-0.171 0.414,-0.171C0.414,-0.171 0.471,-0.164 0.507,-0.164C0.515,-0.164 0.521,-0.162 0.525,-0.158C0.53,-0.153 0.532,-0.149 0.532,-0.144L0.536,-0.015L0.536,-0.013C0.536,-0.008 0.533,-0.003 0.528,0C0.522,0.003 0.383,0 0.383,0Z" style="fill-rule:nonzero;"/>
        </g>
        <g transform="matrix(60.7517,0,0,88.7742,407.132,369.833)">
            <path d="M0.073,0.001C0.064,0.001 0.058,-0.006 0.055,-0.019C0.054,-0.021 0.054,-0.024 0.054,-0.029C0.054,-0.036 0.055,-0.046 0.058,-0.059C0.059,-0.068 0.061,-0.075 0.062,-0.08C0.063,-0.085 0.063,-0.088 0.064,-0.091C0.084,-0.185 0.104,-0.268 0.123,-0.339C0.123,-0.339 0.161,-0.587 0.192,-0.638C0.204,-0.658 0.228,-0.666 0.238,-0.668C0.248,-0.67 0.257,-0.671 0.265,-0.671C0.28,-0.671 0.293,-0.677 0.306,-0.675C0.312,-0.675 0.318,-0.675 0.326,-0.674C0.333,-0.673 0.341,-0.673 0.349,-0.673C0.351,-0.673 0.354,-0.674 0.358,-0.675L0.399,-0.675L0.423,-0.676C0.427,-0.677 0.433,-0.677 0.44,-0.677C0.445,-0.677 0.448,-0.677 0.448,-0.678L0.54,-0.678C0.577,-0.678 0.602,-0.677 0.614,-0.676C0.616,-0.676 0.618,-0.676 0.622,-0.676C0.626,-0.675 0.628,-0.674 0.629,-0.673C0.633,-0.673 0.638,-0.673 0.643,-0.674C0.647,-0.675 0.652,-0.675 0.656,-0.675C0.665,-0.677 0.674,-0.671 0.683,-0.671C0.687,-0.671 0.691,-0.67 0.695,-0.668C0.699,-0.666 0.702,-0.675 0.723,-0.661C0.758,-0.635 0.796,-0.339 0.796,-0.339C0.817,-0.261 0.837,-0.178 0.854,-0.091C0.854,-0.087 0.855,-0.083 0.858,-0.078C0.859,-0.073 0.86,-0.067 0.861,-0.059C0.862,-0.051 0.863,-0.044 0.863,-0.039C0.864,-0.036 0.864,-0.033 0.864,-0.028C0.864,-0.019 0.862,-0.011 0.858,-0.005C0.855,-0.001 0.851,0.001 0.846,0.001L0.833,0.001C0.823,0.001 0.815,0.001 0.81,0L0.784,0L0.759,0L0.739,0C0.734,0 0.731,0 0.731,-0.001L0.668,-0.001L0.668,-0.003C0.665,-0.004 0.662,-0.005 0.658,-0.005C0.658,-0.005 0.658,-0.005 0.658,-0.005C0.657,-0.004 0.657,-0.004 0.656,-0.003C0.656,-0.002 0.655,-0.001 0.654,-0.001L0.651,-0.001L0.643,-0.001C0.64,-0.002 0.633,-0.003 0.623,-0.003C0.603,-0.004 0.587,-0.005 0.576,-0.005C0.572,-0.011 0.568,-0.023 0.564,-0.041C0.559,-0.059 0.555,-0.079 0.55,-0.101C0.549,-0.112 0.547,-0.119 0.546,-0.123C0.532,-0.12 0.514,-0.119 0.491,-0.119L0.46,-0.119L0.431,-0.119L0.424,-0.087C0.415,-0.043 0.408,-0.016 0.403,-0.005C0.4,-0.005 0.397,-0.004 0.393,-0.003C0.392,-0.002 0.391,-0.002 0.39,-0.002C0.389,-0.001 0.388,-0.001 0.388,-0.001L0.384,-0.001C0.38,-0.001 0.377,-0.002 0.375,-0.003C0.374,-0.004 0.372,-0.005 0.37,-0.005L0.325,-0.003L0.309,-0.003L0.294,-0.003C0.291,-0.002 0.288,-0.001 0.284,-0.001L0.28,-0.001L0.188,-0.001L0.179,-0.001C0.172,0 0.157,0 0.134,0L0.108,0C0.103,0.001 0.095,0.001 0.085,0.001L0.073,0.001ZM0.535,-0.244C0.53,-0.277 0.533,-0.293 0.533,-0.293C0.531,-0.303 0.527,-0.356 0.521,-0.385C0.516,-0.417 0.513,-0.441 0.513,-0.441C0.511,-0.455 0.511,-0.471 0.509,-0.481L0.502,-0.508C0.5,-0.511 0.489,-0.511 0.489,-0.511C0.488,-0.51 0.485,-0.511 0.485,-0.511L0.475,-0.512C0.474,-0.507 0.466,-0.503 0.465,-0.497C0.464,-0.491 0.464,-0.473 0.463,-0.467L0.462,-0.432C0.454,-0.39 0.453,-0.355 0.452,-0.348C0.451,-0.341 0.45,-0.325 0.447,-0.311C0.446,-0.306 0.445,-0.294 0.444,-0.284L0.443,-0.248L0.494,-0.248L0.501,-0.25L0.503,-0.25C0.511,-0.25 0.517,-0.249 0.521,-0.248C0.524,-0.248 0.526,-0.247 0.529,-0.247C0.531,-0.245 0.533,-0.245 0.535,-0.244Z" style="fill-rule:nonzero;"/>
        </g>
        <g transform="matrix(67.3517,0,0,88.7742,457.099,369.833)">
            <path d="M0.395,0C0.327,0 0.277,0 0.246,-0.001C0.216,-0.001 0.193,-0.001 0.178,-0.002L0.098,-0.003C0.091,-0.003 0.085,-0.006 0.08,-0.011C0.074,-0.017 0.071,-0.023 0.071,-0.028L0.071,-0.213C0.116,-0.255 0.152,-0.292 0.179,-0.323C0.196,-0.338 0.212,-0.355 0.227,-0.372C0.242,-0.389 0.251,-0.4 0.254,-0.404C0.267,-0.42 0.275,-0.431 0.278,-0.436C0.285,-0.445 0.288,-0.451 0.288,-0.455C0.288,-0.458 0.286,-0.459 0.283,-0.459L0.093,-0.463C0.082,-0.463 0.072,-0.471 0.065,-0.486C0.062,-0.495 0.059,-0.513 0.056,-0.538C0.055,-0.549 0.054,-0.564 0.054,-0.584C0.054,-0.59 0.054,-0.595 0.055,-0.6C0.055,-0.61 0.055,-0.618 0.056,-0.623C0.056,-0.634 0.057,-0.641 0.058,-0.645L0.058,-0.655L0.063,-0.66C0.068,-0.665 0.075,-0.668 0.083,-0.668C0.088,-0.668 0.092,-0.667 0.095,-0.666L0.106,-0.665C0.13,-0.665 0.155,-0.666 0.18,-0.668C0.204,-0.67 0.228,-0.671 0.253,-0.671C0.316,-0.671 0.364,-0.672 0.395,-0.673L0.54,-0.674C0.577,-0.674 0.606,-0.672 0.626,-0.668C0.635,-0.665 0.64,-0.662 0.643,-0.66C0.645,-0.656 0.646,-0.654 0.646,-0.653L0.646,-0.493C0.646,-0.487 0.644,-0.476 0.639,-0.461C0.634,-0.447 0.624,-0.429 0.609,-0.408C0.58,-0.363 0.521,-0.294 0.434,-0.203C0.463,-0.203 0.485,-0.203 0.499,-0.204L0.615,-0.204C0.621,-0.204 0.627,-0.202 0.632,-0.198C0.637,-0.193 0.64,-0.189 0.64,-0.184L0.64,-0.02C0.64,-0.015 0.638,-0.011 0.633,-0.008C0.627,-0.005 0.62,-0.004 0.611,-0.003C0.603,-0.001 0.589,0 0.57,0L0.395,0Z" style="fill-rule:nonzero;"/>
        </g>
        <g transform="matrix(67.3517,0,0,49.1329,499.786,356.718)">
            <path d="M0.113,-0.195C0.092,-0.194 0.076,-0.197 0.065,-0.205C0.06,-0.209 0.058,-0.215 0.058,-0.224L0.058,-0.298C0.058,-0.312 0.058,-0.323 0.057,-0.33L0.056,-0.371C0.056,-0.377 0.059,-0.383 0.065,-0.389C0.071,-0.395 0.077,-0.398 0.083,-0.398C0.103,-0.398 0.118,-0.398 0.128,-0.399C0.145,-0.4 0.16,-0.401 0.173,-0.401L0.265,-0.401C0.278,-0.401 0.294,-0.4 0.311,-0.399C0.32,-0.398 0.334,-0.398 0.354,-0.398C0.368,-0.398 0.382,-0.396 0.395,-0.393C0.409,-0.389 0.416,-0.381 0.416,-0.37C0.416,-0.35 0.415,-0.329 0.414,-0.306C0.414,-0.295 0.414,-0.286 0.413,-0.281L0.413,-0.253C0.413,-0.242 0.413,-0.234 0.412,-0.229C0.411,-0.223 0.408,-0.218 0.405,-0.213C0.399,-0.203 0.384,-0.198 0.361,-0.198L0.354,-0.196C0.352,-0.195 0.349,-0.195 0.345,-0.195L0.144,-0.195L0.113,-0.195Z" style="fill-rule:nonzero;"/>
        </g>
        <g transform="matrix(67.3517,0,0,88.7742,521.024,365.711)">
            <path d="M0.458,0.089L0.457,0.089C0.456,0.089 0.455,0.089 0.454,0.09L0.451,0.091C0.449,0.091 0.448,0.09 0.448,0.089C0.445,0.088 0.444,0.086 0.443,0.083C0.42,0.079 0.405,0.076 0.398,0.073L0.363,0.063L0.358,0.063C0.355,0.063 0.352,0.062 0.35,0.061C0.344,0.061 0.339,0.06 0.335,0.059C0.33,0.058 0.321,0.056 0.309,0.052C0.297,0.048 0.288,0.045 0.283,0.043C0.272,0.04 0.257,0.034 0.237,0.026C0.228,0.022 0.221,0.019 0.216,0.018L0.193,0.004C0.188,0 0.185,-0.004 0.185,-0.008C0.185,-0.021 0.188,-0.034 0.194,-0.048C0.196,-0.053 0.199,-0.058 0.203,-0.065C0.206,-0.072 0.21,-0.079 0.213,-0.088C0.214,-0.092 0.218,-0.098 0.224,-0.106C0.24,-0.133 0.249,-0.147 0.25,-0.15C0.253,-0.157 0.254,-0.164 0.254,-0.17C0.254,-0.18 0.249,-0.19 0.238,-0.201C0.228,-0.211 0.223,-0.221 0.223,-0.23C0.22,-0.23 0.218,-0.23 0.218,-0.229L0.216,-0.229L0.215,-0.229C0.214,-0.23 0.213,-0.232 0.213,-0.233C0.192,-0.26 0.17,-0.292 0.148,-0.33C0.12,-0.374 0.097,-0.414 0.08,-0.45C0.075,-0.458 0.068,-0.472 0.061,-0.493C0.052,-0.511 0.045,-0.529 0.039,-0.548C0.032,-0.569 0.028,-0.582 0.028,-0.588C0.028,-0.595 0.035,-0.603 0.05,-0.614C0.056,-0.618 0.063,-0.622 0.071,-0.626C0.079,-0.63 0.085,-0.633 0.089,-0.635C0.092,-0.636 0.106,-0.639 0.131,-0.646L0.145,-0.651C0.148,-0.653 0.151,-0.654 0.154,-0.654C0.158,-0.654 0.164,-0.655 0.173,-0.658C0.192,-0.662 0.204,-0.665 0.207,-0.666L0.243,-0.674C0.263,-0.681 0.275,-0.684 0.278,-0.685L0.28,-0.686L0.285,-0.686C0.299,-0.686 0.308,-0.683 0.313,-0.676C0.317,-0.672 0.324,-0.663 0.333,-0.648C0.334,-0.644 0.337,-0.639 0.341,-0.634C0.344,-0.629 0.347,-0.625 0.348,-0.624L0.356,-0.613L0.363,-0.605C0.366,-0.602 0.368,-0.598 0.371,-0.593C0.374,-0.588 0.377,-0.583 0.38,-0.578C0.397,-0.547 0.411,-0.526 0.42,-0.513C0.426,-0.504 0.431,-0.5 0.435,-0.5C0.437,-0.5 0.44,-0.504 0.445,-0.511C0.451,-0.52 0.462,-0.542 0.478,-0.575C0.487,-0.596 0.497,-0.621 0.509,-0.648C0.515,-0.66 0.518,-0.667 0.519,-0.67C0.522,-0.682 0.525,-0.69 0.528,-0.693C0.531,-0.698 0.537,-0.701 0.546,-0.701C0.567,-0.701 0.595,-0.697 0.63,-0.688C0.664,-0.678 0.697,-0.665 0.728,-0.649C0.76,-0.632 0.782,-0.616 0.793,-0.601C0.793,-0.583 0.789,-0.566 0.78,-0.551L0.688,-0.348L0.598,-0.144L0.594,-0.143C0.593,-0.143 0.592,-0.142 0.591,-0.141C0.547,-0.055 0.507,0.022 0.47,0.091C0.469,0.094 0.465,0.095 0.458,0.095L0.458,0.089Z" style="fill-rule:nonzero;"/>
        </g>
        <g transform="matrix(1.5522e-17,-0.253493,0.253493,1.5522e-17,283.1,453.652)">
            <g transform="matrix(67.3517,0,0,88.7742,329.777,348.5)">
                <path d="M0.52,0.011C0.491,-0.018 0.466,-0.047 0.445,-0.076C0.43,-0.095 0.408,-0.13 0.377,-0.179L0.36,-0.206C0.359,-0.207 0.359,-0.207 0.359,-0.208C0.358,-0.208 0.358,-0.208 0.358,-0.208L0.353,-0.208L0.349,-0.206C0.348,-0.197 0.348,-0.174 0.348,-0.136C0.348,-0.111 0.347,-0.082 0.344,-0.049L0.343,-0.019C0.34,-0.012 0.339,-0.008 0.338,-0.008L0.331,-0.008L0.328,-0.008C0.255,-0.003 0.201,0 0.168,0L0.153,0L0.134,0C0.127,0 0.121,0 0.118,-0.001L0.111,-0.001L0.08,-0.011L0.078,-0.018C0.077,-0.018 0.076,-0.019 0.076,-0.022C0.075,-0.025 0.075,-0.027 0.075,-0.028C0.073,-0.056 0.071,-0.076 0.07,-0.089C0.067,-0.125 0.066,-0.151 0.065,-0.168C0.064,-0.184 0.063,-0.194 0.063,-0.199L0.058,-0.254L0.057,-0.284C0.056,-0.29 0.056,-0.298 0.056,-0.309L0.056,-0.318C0.057,-0.321 0.058,-0.327 0.058,-0.334L0.058,-0.351C0.059,-0.354 0.059,-0.357 0.059,-0.36L0.058,-0.368L0.058,-0.378C0.058,-0.383 0.057,-0.386 0.056,-0.389L0.056,-0.395L0.057,-0.42C0.058,-0.425 0.058,-0.432 0.058,-0.441C0.059,-0.461 0.06,-0.48 0.06,-0.498L0.06,-0.508C0.059,-0.51 0.059,-0.514 0.059,-0.521L0.059,-0.535L0.059,-0.545C0.057,-0.547 0.056,-0.549 0.056,-0.551C0.056,-0.56 0.064,-0.567 0.081,-0.571C0.09,-0.574 0.102,-0.575 0.118,-0.575C0.274,-0.575 0.391,-0.57 0.468,-0.559C0.544,-0.548 0.597,-0.53 0.628,-0.504C0.641,-0.491 0.651,-0.476 0.657,-0.46C0.662,-0.443 0.665,-0.422 0.665,-0.399C0.665,-0.362 0.654,-0.33 0.633,-0.305C0.619,-0.291 0.603,-0.279 0.584,-0.27C0.588,-0.26 0.6,-0.24 0.619,-0.21C0.623,-0.205 0.627,-0.2 0.631,-0.195C0.634,-0.19 0.639,-0.184 0.644,-0.178C0.657,-0.161 0.671,-0.142 0.688,-0.121C0.689,-0.118 0.691,-0.113 0.696,-0.104C0.699,-0.103 0.701,-0.101 0.702,-0.1C0.702,-0.098 0.701,-0.096 0.7,-0.093C0.695,-0.085 0.679,-0.073 0.653,-0.058C0.65,-0.055 0.646,-0.051 0.641,-0.048C0.628,-0.037 0.609,-0.026 0.586,-0.015C0.565,-0.004 0.546,0.004 0.531,0.009C0.525,0.012 0.521,0.013 0.52,0.011ZM0.338,-0.341C0.347,-0.341 0.358,-0.343 0.373,-0.346C0.387,-0.35 0.397,-0.354 0.403,-0.358C0.413,-0.364 0.422,-0.371 0.429,-0.378C0.436,-0.387 0.44,-0.397 0.44,-0.408C0.44,-0.427 0.434,-0.442 0.423,-0.453C0.413,-0.461 0.401,-0.465 0.386,-0.465L0.343,-0.465C0.343,-0.456 0.342,-0.443 0.341,-0.424L0.34,-0.403C0.339,-0.39 0.338,-0.369 0.338,-0.341Z" style="fill:rgb(97,218,251);fill-rule:nonzero;"/>
            </g>
            <g transform="matrix(67.3517,0,0,88.7742,380.291,348.5)">
                <path d="M0.096,-0.004C0.095,-0.004 0.094,-0.005 0.093,-0.008C0.088,-0.014 0.085,-0.021 0.083,-0.03C0.081,-0.033 0.079,-0.038 0.078,-0.043C0.072,-0.055 0.068,-0.072 0.065,-0.093C0.062,-0.124 0.061,-0.148 0.061,-0.166C0.06,-0.174 0.06,-0.185 0.06,-0.199L0.06,-0.223C0.06,-0.243 0.06,-0.259 0.059,-0.27C0.058,-0.282 0.058,-0.306 0.058,-0.341C0.058,-0.436 0.06,-0.509 0.064,-0.56C0.064,-0.568 0.075,-0.574 0.098,-0.578L0.153,-0.578C0.191,-0.578 0.219,-0.577 0.238,-0.576C0.266,-0.574 0.294,-0.573 0.323,-0.573C0.33,-0.573 0.335,-0.573 0.338,-0.574L0.353,-0.574L0.358,-0.57C0.38,-0.575 0.403,-0.578 0.426,-0.579C0.449,-0.58 0.478,-0.581 0.511,-0.581C0.512,-0.581 0.514,-0.58 0.516,-0.578L0.548,-0.578C0.553,-0.578 0.558,-0.575 0.561,-0.569C0.564,-0.563 0.566,-0.554 0.568,-0.543C0.571,-0.534 0.573,-0.524 0.574,-0.511C0.577,-0.494 0.579,-0.483 0.581,-0.478C0.581,-0.459 0.578,-0.45 0.571,-0.45C0.57,-0.45 0.569,-0.451 0.568,-0.453L0.564,-0.454C0.561,-0.455 0.557,-0.454 0.553,-0.453C0.549,-0.451 0.545,-0.45 0.54,-0.45C0.536,-0.45 0.533,-0.451 0.53,-0.453C0.529,-0.454 0.526,-0.454 0.521,-0.454C0.515,-0.454 0.508,-0.453 0.5,-0.451C0.497,-0.45 0.492,-0.449 0.485,-0.448C0.477,-0.447 0.468,-0.446 0.458,-0.446C0.429,-0.446 0.409,-0.445 0.396,-0.444C0.389,-0.443 0.382,-0.441 0.375,-0.438L0.375,-0.44C0.372,-0.44 0.37,-0.437 0.368,-0.43C0.363,-0.419 0.36,-0.403 0.359,-0.383C0.358,-0.377 0.358,-0.37 0.358,-0.363C0.358,-0.356 0.359,-0.351 0.362,-0.348C0.364,-0.345 0.368,-0.344 0.373,-0.344C0.377,-0.344 0.38,-0.345 0.383,-0.348C0.384,-0.348 0.386,-0.348 0.388,-0.347C0.39,-0.346 0.392,-0.345 0.393,-0.344L0.478,-0.344C0.479,-0.345 0.48,-0.346 0.481,-0.347C0.482,-0.348 0.484,-0.348 0.485,-0.348C0.492,-0.348 0.497,-0.347 0.5,-0.345C0.504,-0.343 0.512,-0.341 0.524,-0.339C0.531,-0.339 0.535,-0.337 0.538,-0.333C0.541,-0.328 0.543,-0.324 0.543,-0.32L0.564,-0.254C0.566,-0.243 0.556,-0.236 0.534,-0.233C0.521,-0.23 0.497,-0.229 0.461,-0.229L0.418,-0.229L0.388,-0.229C0.379,-0.229 0.372,-0.229 0.367,-0.228C0.362,-0.227 0.359,-0.224 0.358,-0.22C0.355,-0.217 0.354,-0.211 0.354,-0.204L0.354,-0.2C0.354,-0.197 0.354,-0.194 0.355,-0.193L0.354,-0.171C0.353,-0.166 0.353,-0.159 0.353,-0.15L0.353,-0.125C0.383,-0.125 0.414,-0.126 0.445,-0.128C0.476,-0.13 0.506,-0.131 0.536,-0.131C0.538,-0.131 0.54,-0.13 0.541,-0.127C0.542,-0.124 0.543,-0.12 0.543,-0.116C0.544,-0.112 0.545,-0.108 0.545,-0.103C0.546,-0.093 0.548,-0.084 0.551,-0.075L0.558,-0.046L0.558,-0.015L0.55,-0.008L0.543,-0.008L0.54,-0.008C0.533,-0.008 0.528,-0.008 0.526,-0.009C0.524,-0.01 0.522,-0.011 0.519,-0.011C0.518,-0.01 0.516,-0.009 0.513,-0.008C0.51,-0.007 0.508,-0.005 0.506,-0.004L0.506,-0.009L0.494,-0.008L0.479,-0.008C0.476,-0.008 0.474,-0.009 0.473,-0.01L0.465,-0.011C0.44,-0.011 0.423,-0.009 0.413,-0.004L0.096,-0.004Z" style="fill:rgb(97,218,251);fill-rule:nonzero;"/>
            </g>
            <g transform="matrix(67.3517,0,0,88.7742,422.925,348.5)">
                <path d="M0.068,0.001C0.055,0.001 0.05,-0.01 0.053,-0.033C0.053,-0.041 0.055,-0.05 0.058,-0.06C0.058,-0.065 0.058,-0.069 0.059,-0.072C0.06,-0.075 0.06,-0.077 0.06,-0.079C0.075,-0.152 0.092,-0.223 0.111,-0.294L0.179,-0.56C0.179,-0.561 0.18,-0.563 0.182,-0.565C0.184,-0.567 0.186,-0.569 0.188,-0.57L0.195,-0.57C0.203,-0.57 0.209,-0.571 0.214,-0.573C0.218,-0.574 0.225,-0.574 0.235,-0.574C0.251,-0.574 0.263,-0.574 0.271,-0.573C0.283,-0.571 0.295,-0.57 0.308,-0.57L0.36,-0.571C0.365,-0.572 0.372,-0.573 0.379,-0.573L0.423,-0.575L0.456,-0.575C0.469,-0.575 0.481,-0.575 0.493,-0.574L0.521,-0.574C0.528,-0.573 0.537,-0.573 0.55,-0.573L0.588,-0.573C0.59,-0.573 0.592,-0.573 0.594,-0.572C0.596,-0.571 0.598,-0.571 0.599,-0.57C0.602,-0.569 0.605,-0.568 0.609,-0.568L0.618,-0.568C0.623,-0.565 0.625,-0.561 0.625,-0.558L0.696,-0.294C0.718,-0.209 0.735,-0.138 0.748,-0.079C0.748,-0.076 0.749,-0.069 0.751,-0.06C0.754,-0.047 0.755,-0.036 0.755,-0.028C0.755,-0.023 0.754,-0.017 0.753,-0.009C0.75,-0.002 0.745,0.001 0.739,0.001L0.728,0.001C0.719,0.001 0.713,0.001 0.708,0L0.686,0L0.665,0L0.648,0C0.643,0 0.641,0 0.64,-0.001L0.585,-0.001L0.584,-0.003C0.583,-0.004 0.581,-0.005 0.578,-0.005L0.575,-0.003C0.575,-0.002 0.574,-0.001 0.573,-0.001L0.57,-0.001L0.563,-0.001C0.56,-0.002 0.554,-0.003 0.545,-0.003C0.529,-0.004 0.516,-0.005 0.505,-0.005C0.498,-0.02 0.489,-0.054 0.479,-0.106C0.465,-0.104 0.449,-0.103 0.431,-0.103L0.405,-0.103L0.38,-0.103C0.377,-0.093 0.376,-0.085 0.375,-0.078C0.374,-0.075 0.372,-0.063 0.367,-0.044C0.362,-0.025 0.358,-0.012 0.354,-0.005L0.348,-0.003C0.346,-0.002 0.344,-0.002 0.343,-0.002C0.342,-0.001 0.341,-0.001 0.341,-0.001L0.339,-0.001C0.335,-0.001 0.332,-0.002 0.331,-0.003C0.328,-0.004 0.327,-0.005 0.326,-0.005L0.288,-0.003L0.26,-0.003C0.257,-0.002 0.254,-0.002 0.252,-0.002C0.25,-0.001 0.249,-0.001 0.248,-0.001L0.168,-0.001L0.16,-0.001C0.154,0 0.142,0 0.123,0L0.099,0C0.095,0.001 0.089,0.001 0.08,0.001L0.068,0.001ZM0.47,-0.213C0.466,-0.236 0.464,-0.249 0.463,-0.253L0.455,-0.301C0.454,-0.31 0.452,-0.319 0.451,-0.327C0.45,-0.334 0.449,-0.341 0.448,-0.348C0.446,-0.356 0.444,-0.364 0.444,-0.371C0.443,-0.378 0.441,-0.384 0.44,-0.39C0.439,-0.394 0.439,-0.399 0.438,-0.406C0.437,-0.412 0.436,-0.416 0.435,-0.419L0.433,-0.431C0.433,-0.434 0.432,-0.436 0.431,-0.438L0.43,-0.444C0.429,-0.44 0.428,-0.438 0.428,-0.438L0.428,-0.431C0.428,-0.43 0.428,-0.429 0.427,-0.428C0.426,-0.426 0.426,-0.423 0.425,-0.419C0.424,-0.416 0.424,-0.412 0.423,-0.407C0.422,-0.402 0.421,-0.396 0.42,-0.39L0.413,-0.349L0.405,-0.303L0.402,-0.281C0.401,-0.276 0.399,-0.267 0.398,-0.255C0.392,-0.225 0.389,-0.211 0.39,-0.214L0.434,-0.214C0.435,-0.215 0.436,-0.216 0.437,-0.217C0.438,-0.218 0.439,-0.218 0.44,-0.218L0.443,-0.218C0.446,-0.218 0.449,-0.218 0.452,-0.217C0.454,-0.216 0.456,-0.216 0.458,-0.215C0.462,-0.214 0.466,-0.213 0.47,-0.213Z" style="fill:rgb(97,218,251);fill-rule:nonzero;"/>
            </g>
            <g transform="matrix(67.3517,0,0,88.7742,477.345,348.5)">
                <path d="M0.353,0.024C0.294,0.024 0.246,0.019 0.208,0.008C0.157,-0.006 0.118,-0.033 0.09,-0.073C0.059,-0.118 0.043,-0.183 0.043,-0.268C0.043,-0.32 0.05,-0.367 0.064,-0.409C0.078,-0.45 0.098,-0.485 0.125,-0.514C0.152,-0.542 0.183,-0.563 0.218,-0.578C0.253,-0.593 0.292,-0.6 0.333,-0.6C0.402,-0.6 0.474,-0.578 0.549,-0.535L0.536,-0.423L0.513,-0.428C0.51,-0.429 0.5,-0.431 0.482,-0.435C0.464,-0.439 0.448,-0.441 0.433,-0.441C0.402,-0.441 0.378,-0.43 0.363,-0.409C0.343,-0.382 0.333,-0.339 0.333,-0.28C0.333,-0.231 0.34,-0.195 0.354,-0.17C0.367,-0.149 0.385,-0.139 0.408,-0.139C0.424,-0.139 0.443,-0.144 0.464,-0.155C0.485,-0.165 0.505,-0.177 0.524,-0.19L0.534,-0.048C0.511,-0.026 0.482,-0.009 0.448,0.004C0.417,0.017 0.386,0.024 0.353,0.024Z" style="fill:rgb(97,218,251);fill-rule:nonzero;"/>
            </g>
            <g transform="matrix(67.3517,0,0,88.7742,517.352,348.5)">
                <path d="M0.349,0.003L0.303,0.003L0.251,0.003L0.185,0.003C0.179,-0.006 0.175,-0.023 0.173,-0.048C0.17,-0.07 0.169,-0.102 0.169,-0.144L0.17,-0.254C0.171,-0.281 0.171,-0.323 0.171,-0.381L0.168,-0.384L0.069,-0.384C0.054,-0.384 0.045,-0.401 0.04,-0.434C0.037,-0.452 0.036,-0.478 0.036,-0.513L0.036,-0.526C0.037,-0.531 0.038,-0.538 0.038,-0.548L0.038,-0.568L0.039,-0.576L0.043,-0.58L0.061,-0.579L0.081,-0.579C0.11,-0.579 0.133,-0.579 0.148,-0.58L0.351,-0.58C0.36,-0.579 0.372,-0.579 0.388,-0.579L0.413,-0.579C0.416,-0.58 0.42,-0.581 0.426,-0.581C0.431,-0.582 0.435,-0.583 0.439,-0.583C0.452,-0.583 0.461,-0.582 0.468,-0.581C0.481,-0.58 0.491,-0.579 0.498,-0.579L0.524,-0.58L0.563,-0.58C0.583,-0.58 0.597,-0.58 0.604,-0.579L0.618,-0.578C0.619,-0.577 0.62,-0.576 0.621,-0.576C0.622,-0.575 0.623,-0.574 0.623,-0.573L0.623,-0.403C0.623,-0.399 0.621,-0.395 0.617,-0.39C0.612,-0.385 0.608,-0.382 0.604,-0.381C0.582,-0.386 0.553,-0.388 0.518,-0.388L0.48,-0.388C0.47,-0.388 0.463,-0.375 0.46,-0.35C0.459,-0.343 0.458,-0.332 0.458,-0.318L0.458,-0.288C0.458,-0.275 0.458,-0.265 0.459,-0.258L0.459,-0.23C0.459,-0.203 0.458,-0.177 0.455,-0.154C0.454,-0.137 0.453,-0.124 0.453,-0.116C0.452,-0.108 0.451,-0.097 0.451,-0.083C0.451,-0.063 0.45,-0.046 0.449,-0.033C0.448,-0.012 0.441,-0.001 0.426,0C0.41,0.002 0.401,0.003 0.398,0.003L0.349,0.003Z" style="fill:rgb(97,218,251);fill-rule:nonzero;"/>
            </g>
        </g>
    </g>
</svg>
