<svg viewBox="0 0 275 90" xmlns="http://www.w3.org/2000/svg" fill-rule="evenodd" clip-rule="evenodd" stroke-linejoin="round" stroke-miterlimit="2"><path d="M48.556 84.158c-5.894 0-10.165 0-12.813-.113-2.478 0-4.357 0-5.639-.113l-2.648-.112c-.512 0-1.025-.338-1.452-.9-.513-.564-.683-1.24-.683-1.915V45.424l-.086-9.233c0-3.04 0-6.98.171-11.597 0-1.013.085-3.49.256-7.544v-2.59c0-2.139.257-3.828.94-5.067.256-.675.683-1.013 1.367-1.013 2.733 0 1.452.113 4.784.225.427.113 1.11.113 1.964.113 1.88 0 3.247 0 4.186.112h6.663c1.111 0 1.965.226 2.563.563 1.025.789 1.538 2.478 1.538 5.18l-.086.9c0 .226-.085.789-.17 1.69-.171 1.126-.257 1.914-.257 2.477 0 .788.086 1.914.257 3.152.085.901.17 1.464.17 1.802l.086.676v30.063l-.342 8.332c0 .563.256.9.769 1.126.17 0 .598.113 1.11.113 0 0 4.87.788 7.945.788.684 0 1.196.225 1.538.675.427.563.598 1.014.598 1.577l.341 14.525v.225c0 .563-.256 1.126-.683 1.464-.513.337-12.387 0-12.387 0zM68.017 84.27c-.694 0-1.156-.788-1.387-2.252-.077-.225-.077-.563-.077-1.126 0-.788.077-1.914.308-3.378.077-1.013.231-1.801.308-2.364.077-.563.077-.9.154-1.239 1.541-10.584 3.083-19.93 4.547-27.924 0 0 2.928-27.924 5.316-33.666.925-2.252 2.774-3.153 3.545-3.378.77-.225 1.464-.338 2.08-.338 1.156 0 2.158-.675 3.16-.45.462 0 .924 0 1.54.112.54.113 1.156.113 1.773.113.154 0 .385-.113.693-.225h3.16l1.849-.113c.308-.112.77-.112 1.31-.112.385 0 .616 0 .616-.113h7.09c2.85 0 4.777.113 5.701.225h.617c.308.113.462.225.54.338.307 0 .693 0 1.078-.113.308-.112.693-.112 1.002-.112.693-.225 1.387.45 2.08.45.308 0 .616.113.925.338.308.225.54-.788 2.157.788 2.697 2.928 5.625 36.256 5.625 36.256 1.618 8.783 3.16 18.128 4.47 27.924 0 .45.076.901.308 1.464.077.563.154 1.239.23 2.14.078.9.155 1.688.155 2.251.077.338.077.676.077 1.239 0 1.013-.154 1.914-.462 2.59-.232.45-.54.675-.925.675h-1.002c-.77 0-1.387 0-1.772-.112H119.336c-.386 0-.617 0-.617-.113h-4.855v-.225c-.23-.113-.462-.225-.77-.225l-.154.225c0 .112-.077.225-.155.225h-.847c-.231-.113-.77-.225-1.541-.225-1.541-.113-2.774-.225-3.622-.225-.308-.676-.616-2.027-.924-4.054-.386-2.027-.694-4.278-1.08-6.756-.076-1.238-.23-2.026-.307-2.477-1.08.338-2.466.45-4.238.45H95.602l-.54 3.604c-.693 4.954-1.232 7.994-1.617 9.233-.231 0-.463.112-.77.225-.078.112-.155.112-.232.112-.077.113-.154.113-.154.113h-.308a1.16 1.16 0 01-.694-.225c-.077-.113-.23-.225-.385-.225l-3.467.225H85.046c-.231.112-.462.225-.77.225H76.184c-.54.113-1.696.113-3.468.113h-2.003c-.386.112-1.002.112-1.773.112h-.924zm35.599-27.586c-.385-3.716-.154-5.517-.154-5.517-.154-1.126-.462-7.094-.925-10.36-.385-3.602-.616-6.304-.616-6.304-.154-1.577-.154-3.378-.308-4.504l-.54-3.04c-.154-.338-1.002-.338-1.002-.338-.077.112-.308 0-.308 0l-.77-.113c-.077.563-.694 1.014-.77 1.69-.078.675-.078 2.701-.155 3.377l-.077 3.94c-.616 4.73-.693 8.67-.77 9.459-.078.788-.155 2.59-.386 4.166-.077.563-.154 1.914-.231 3.04l-.077 4.054h3.93l.54-.226h.153c.617 0 1.079.113 1.387.226.231 0 .385.112.617.112.154.225.308.225.462.338zM159.51 84.158c-5.808 0-10.08 0-12.728-.113-2.563 0-4.527 0-5.809-.113l-6.834-.112c-.598 0-1.11-.338-1.537-.9-.513-.676-.77-1.352-.77-1.915v-20.83c3.845-4.73 6.92-8.896 9.227-12.386 1.452-1.689 2.819-3.603 4.1-5.517 1.281-1.914 2.05-3.153 2.307-3.603 1.11-1.802 1.794-3.04 2.05-3.604.598-1.013.854-1.688.854-2.139 0-.338-.17-.45-.427-.45l-16.23-.45c-.94 0-1.795-.901-2.393-2.59-.256-1.014-.512-3.04-.769-5.855a73.774 73.774 0 01-.17-5.18c0-.675 0-1.238.085-1.801 0-1.126 0-2.027.085-2.59 0-1.239.086-2.027.171-2.477v-1.126l.427-.563c.427-.563 1.025-.9 1.709-.9.427 0 .769.112 1.025.224l.94.113c2.05 0 4.185-.113 6.321-.338 2.05-.225 4.1-.338 6.236-.338 5.382 0 9.482-.112 12.13-.225l12.387-.113c3.161 0 5.638.226 7.347.676.769.338 1.196.676 1.452.9.171.451.256.676.256.789v18.015c0 .676-.17 1.915-.598 3.604-.427 1.576-1.281 3.603-2.562 5.967-2.478 5.067-7.518 12.836-14.95 23.083 2.478 0 4.357 0 5.553-.113h9.91c.512 0 1.024.225 1.451.676.428.563.684 1.013.684 1.576v18.466c0 .563-.171 1.013-.598 1.35-.513.339-1.11.451-1.88.564-.683.225-1.879.338-3.502.338h-14.95zM189.563 55.371c-1.794.063-3.161-.124-4.1-.623-.428-.25-.599-.623-.599-1.184v-4.611c0-.873 0-1.558-.085-1.995l-.086-2.555c0-.374.257-.747.77-1.121.512-.374 1.024-.561 1.537-.561 1.708 0 2.99 0 3.844-.062 1.452-.063 2.734-.125 3.844-.125h7.86c1.11 0 2.477.062 3.929.125.769.062 1.965.062 3.673.062a21.3 21.3 0 013.503.311c1.196.25 1.794.748 1.794 1.434 0 1.246-.086 2.555-.171 3.988 0 .686 0 1.246-.086 1.558v1.745c0 .685 0 1.184-.085 1.496-.086.373-.342.685-.598.997-.513.623-1.794.934-3.759.934l-.598.125c-.17.062-.427.062-.769.062h-19.818zM245.972 88.95h-.086c-.085 0-.17 0-.256.113l-.256.113c-.171 0-.257-.113-.257-.225-.256-.113-.341-.338-.427-.676-1.964-.45-3.246-.788-3.844-1.126l-2.99-1.126h-.427c-.256 0-.512-.112-.683-.225-.513 0-.94-.113-1.282-.225a14.942 14.942 0 01-2.22-.788c-1.026-.45-1.795-.789-2.222-1.014-.94-.338-2.22-1.013-3.93-1.914-.768-.45-1.366-.788-1.793-.9l-1.965-1.577c-.427-.45-.683-.9-.683-1.351 0-1.464.256-2.928.768-4.504.171-.563.427-1.126.77-1.914.255-.788.597-1.577.853-2.59.086-.45.428-1.126.94-2.027 1.367-3.04 2.136-4.616 2.221-4.954a7.34 7.34 0 00.342-2.252c0-1.126-.427-2.252-1.367-3.49-.854-1.126-1.281-2.252-1.281-3.266-.257 0-.427 0-.427.113h-.257a.981.981 0 01-.17-.45c-1.795-3.04-3.674-6.644-5.553-10.922-2.392-4.955-4.357-9.459-5.81-13.512-.426-.9-1.024-2.477-1.622-4.842-.77-2.026-1.367-4.053-1.88-6.192-.598-2.365-.94-3.829-.94-4.504 0-.789.599-1.69 1.88-2.928.513-.45 1.11-.9 1.794-1.351l1.538-1.013c.256-.113 1.452-.45 3.588-1.239l1.195-.563c.257-.225.513-.338.77-.338.341 0 .854-.112 1.622-.45 1.623-.45 2.649-.788 2.905-.9l3.075-.902c1.709-.788 2.734-1.126 2.99-1.238l.17-.113h.428c1.196 0 1.965.338 2.392 1.126.342.45.94 1.464 1.708 3.153.086.45.342 1.013.684 1.576.256.563.512 1.014.598 1.126l.683 1.239.598.9c.257.338.427.789.684 1.352l.768 1.689c1.453 3.49 2.649 5.855 3.418 7.318.512 1.014.94 1.464 1.28 1.464.172 0 .428-.45.855-1.238.513-1.014 1.452-3.49 2.82-7.207.768-2.364 1.622-5.179 2.647-8.22.513-1.35.77-2.138.855-2.476.256-1.351.512-2.252.768-2.59.257-.563.77-.9 1.538-.9 1.794 0 4.186.45 7.176 1.463a41.662 41.662 0 018.372 4.391c2.733 1.914 4.613 3.716 5.552 5.405 0 2.027-.341 3.94-1.11 5.63l-7.86 22.857-7.688 22.97-.341.112c-.086 0-.171.113-.257.225-3.758 9.684-7.175 18.354-10.336 26.123-.086.338-.427.45-1.025.45v-.675z" fill-rule="nonzero"/><text x="329.777" y="348.5" font-family="'SigmarOne-Regular','Sigmar One'" font-size="88.774" fill="#61dafb" transform="matrix(0 -.24393 .32152 0 -94.924 164.883)">react</text></svg>